<svg xmlns="http://www.w3.org/2000/svg" xmlns:xlink="http://www.w3.org/1999/xlink" viewBox="0,0,256,256" width="48px" height="48px"><g fill="none" fill-rule="nonzero" stroke="#5a16eb" stroke-width="3" stroke-linecap="none" stroke-linejoin="none" stroke-miterlimit="10" stroke-dasharray="" stroke-dashoffset="0" font-family="none" font-weight="none" font-size="none" text-anchor="none" style="mix-blend-mode: normal"><g transform="scale(5.33333,5.33333)"><path d="M40.5,33.3v3.2c0,2.2 -1.8,4 -4,4h-25c-2.2,0 -4,-1.8 -4,-4v-12.5" stroke-linecap="round" stroke-linejoin="round"></path><path d="M7.5,17.4v-5.9c0,-2.2 1.8,-4 4,-4h25c2.2,0 4,1.8 4,4v16.3" stroke-linecap="round" stroke-linejoin="round"></path><circle cx="24" cy="18" r="4.5" stroke-linecap="butt" stroke-linejoin="miter"></circle><path d="M32.5,30.3c0,-1.6 -1.3,-2.8 -2.8,-2.8h-11.4c-1.6,0 -2.8,1.3 -2.8,2.8v0c0,2.7 3.4,5.2 8.5,5.2c5.1,0 8.5,-2.5 8.5,-5.2z" stroke-linecap="butt" stroke-linejoin="miter"></path></g></g></svg>