<svg xmlns="http://www.w3.org/2000/svg" xmlns:xlink="http://www.w3.org/1999/xlink" viewBox="0,0,256,256" width="48px" height="48px"><g fill="#5a16eb" fill-rule="nonzero" stroke="none" stroke-width="1" stroke-linecap="butt" stroke-linejoin="miter" stroke-miterlimit="10" stroke-dasharray="" stroke-dashoffset="0" font-family="none" font-weight="none" font-size="none" text-anchor="none" style="mix-blend-mode: normal"><g transform="scale(5.33333,5.33333)"><path d="M24,4c-3.29586,0 -6,2.70413 -6,6v2h-10.5c-2.4675,0 -4.5,2.0325 -4.5,4.5v21c0,2.4675 2.0325,4.5 4.5,4.5h3.77734c0.54095,0.00765 1.04412,-0.27656 1.31683,-0.74381c0.27271,-0.46725 0.27271,-1.04514 0,-1.51238c-0.27271,-0.46725 -0.77588,-0.75146 -1.31683,-0.74381h-3.77734c-0.8465,0 -1.5,-0.6535 -1.5,-1.5v-21c0,-0.8465 0.6535,-1.5 1.5,-1.5h10.55078c0.24886,1.68099 1.7054,3 3.44922,3h5c1.91495,0 3.5,-1.58505 3.5,-3.5v-4.5c0,-3.29587 -2.70414,-6 -6,-6zM24,7c1.67413,0 3,1.32587 3,3v4.5c0,0.29505 -0.20496,0.5 -0.5,0.5h-5c-0.29504,0 -0.5,-0.20495 -0.5,-0.5v-0.75391c0.02645,-0.16103 0.02645,-0.3253 0,-0.48633v-3.25977c0,-1.67413 1.32587,-3 3,-3zM35.53125,12c-0.54095,-0.00765 -1.04412,0.27656 -1.31683,0.74381c-0.27271,0.46725 -0.27271,1.04514 0,1.51238c0.27271,0.46725 0.77588,0.75146 1.31683,0.74381h4.96875c0.8465,0 1.5,0.6535 1.5,1.5v21c0,0.8465 -0.6535,1.5 -1.5,1.5h-23.66992c-0.54095,-0.00765 -1.04412,0.27656 -1.31683,0.74381c-0.27271,0.46725 -0.27271,1.04514 0,1.51238c0.27271,0.46725 0.77588,0.75146 1.31683,0.74381h23.66992c2.4675,0 4.5,-2.0325 4.5,-4.5v-21c0,-2.4675 -2.0325,-4.5 -4.5,-4.5zM15.53711,18.9375c-1.51267,0 -2.8379,0.6211 -3.68164,1.57031c-0.84374,0.94921 -1.23242,2.15717 -1.23242,3.34375c0,1.18658 0.38868,2.39259 1.23242,3.3418c0.00851,0.00957 0.01874,0.01784 0.02734,0.02734c-2.04531,0.22437 -3.66797,1.96022 -3.66797,4.06055c0,1.86524 1.26336,3.33017 2.72461,4.0957c1.46125,0.76553 3.19315,1.05961 4.90625,1.01563c0.82843,-0.02103 1.48295,-0.70966 1.46191,-1.53809c-0.02103,-0.82843 -0.70966,-1.48295 -1.53809,-1.46191c-1.2859,0.03302 -2.6015,-0.23586 -3.4375,-0.67383c-0.836,-0.43797 -1.11719,-0.81774 -1.11719,-1.4375c0,-0.62802 0.47745,-1.10547 1.10547,-1.10547h6.43359c0.62802,0 1.10547,0.47745 1.10547,1.10547c0,0.38964 -0.10533,0.6228 -0.39648,0.92188c-0.38404,0.38186 -0.53245,0.94108 -0.38828,1.46312c0.14417,0.52204 0.55852,0.92584 1.0841,1.0565c0.52558,0.13066 1.08078,-0.03211 1.45262,-0.42587c0.73884,-0.75893 1.24805,-1.83927 1.24805,-3.01562c0,-2.10033 -1.62266,-3.83617 -3.66797,-4.06055c0.00861,-0.00951 0.01883,-0.01777 0.02734,-0.02734c0.84374,-0.94921 1.23047,-2.15521 1.23047,-3.3418c0,-1.18658 -0.38673,-2.39454 -1.23047,-3.34375c-0.84374,-0.94921 -2.16897,-1.57031 -3.68164,-1.57031zM15.53711,21.9375c0.76267,0 1.14553,0.23379 1.43945,0.56445c0.29392,0.33066 0.47266,0.82969 0.47266,1.34961c0,0.51992 -0.17873,1.01894 -0.47266,1.34961c-0.29392,0.33066 -0.67679,0.5625 -1.43945,0.5625c-0.76267,0 -1.14553,-0.23184 -1.43945,-0.5625c-0.29392,-0.33066 -0.47461,-0.82969 -0.47461,-1.34961c0,-0.51992 0.18069,-1.01894 0.47461,-1.34961c0.29392,-0.33066 0.67679,-0.56445 1.43945,-0.56445zM26.5,23c-0.54095,-0.00765 -1.04412,0.27656 -1.31683,0.74381c-0.27271,0.46725 -0.27271,1.04514 0,1.51238c0.27271,0.46725 0.77588,0.75146 1.31683,0.74381h10c0.54095,0.00765 1.04412,-0.27656 1.31683,-0.74381c0.27271,-0.46725 0.27271,-1.04514 0,-1.51238c-0.27271,-0.46725 -0.77588,-0.75146 -1.31683,-0.74381zM26.5,30c-0.54095,-0.00765 -1.04412,0.27656 -1.31683,0.74381c-0.27271,0.46725 -0.27271,1.04514 0,1.51238c0.27271,0.46725 0.77588,0.75146 1.31683,0.74381h10c0.54095,0.00765 1.04412,-0.27656 1.31683,-0.74381c0.27271,-0.46725 0.27271,-1.04514 0,-1.51238c-0.27271,-0.46725 -0.77588,-0.75146 -1.31683,-0.74381z"></path></g></g></svg>