<svg xmlns="http://www.w3.org/2000/svg" xmlns:xlink="http://www.w3.org/1999/xlink" viewBox="0,0,256,256" width="48px" height="48px"><g fill="none" fill-rule="nonzero" stroke="#5a16eb" stroke-width="3" stroke-linecap="round" stroke-linejoin="round" stroke-miterlimit="10" stroke-dasharray="" stroke-dashoffset="0" font-family="none" font-weight="none" font-size="none" text-anchor="none" style="mix-blend-mode: normal"><g transform="scale(5.33333,5.33333)"><path d="M38.5,23.5v-9h-7c-1.1,0 -2,-0.9 -2,-2v-7"></path><path d="M16.7,5.5h-4.2c-1.7,0 -3,1.3 -3,3v31c0,1.7 1.3,3 3,3h11.2"></path><path d="M29.5,5.5h-6.7"></path><path d="M38.5,14.5l-9,-9"></path><path d="M33.5,26.5c3.9,0 7,3.1 7,7c0,3.9 -3.1,7 -7,7c-3.9,0 -7,-3.1 -7,-7c0,-0.7 0.1,-1.4 0.3,-2"></path><path d="M38.5,38.5l7,7"></path></g></g></svg>