<svg xmlns="http://www.w3.org/2000/svg" xmlns:xlink="http://www.w3.org/1999/xlink" viewBox="0,0,256,256" width="48px" height="48px"><g fill="none" fill-rule="nonzero" stroke="none" stroke-width="none" stroke-linecap="none" stroke-linejoin="none" stroke-miterlimit="10" stroke-dasharray="" stroke-dashoffset="0" font-family="none" font-weight="none" font-size="none" text-anchor="none" style="mix-blend-mode: normal"><g transform="scale(5.33333,5.33333)"><path d="M10.5,44.2l2.5,-8.9c0.1,-0.3 0.3,-0.6 0.5,-0.9l22.7,-22.7c2.3,-2.3 6.2,-2.2 8.4,0.4c1.9,2.3 1.5,5.7 -0.6,7.7l-22.4,22.6c-0.2,0.2 -0.6,0.4 -0.9,0.5l-8.9,2.5c-0.8,0.3 -1.5,-0.4 -1.3,-1.2z" fill="#d7d2ff" stroke="none" stroke-width="1" stroke-linecap="butt" stroke-linejoin="miter"></path><path d="M30.2,25.6l-12.4,12.4c-0.2,0.2 -0.5,0.4 -0.9,0.5l-8.7,2.5c-0.8,0.2 -1.5,-0.5 -1.2,-1.2l2.5,-8.7c0.1,-0.3 0.3,-0.6 0.5,-0.9l3.3,-3.3" fill="none" stroke="#5a16eb" stroke-width="3" stroke-linecap="round" stroke-linejoin="round"></path><path d="M17.8,22.4l14.3,-14.3c2.3,-2.3 6,-2.1 8.1,0.4c1.8,2.2 1.5,5.5 -0.5,7.5l-6.4,6.4" fill="none" stroke="#5a16eb" stroke-width="3" stroke-linecap="round" stroke-linejoin="round"></path><path d="M29.1,11.1l7.8,7.8" fill="none" stroke="#5a16eb" stroke-width="3" stroke-linecap="round" stroke-linejoin="miter"></path><path d="M9.5,31.5l6.5,6.5" fill="none" stroke="#5a16eb" stroke-width="3" stroke-linecap="round" stroke-linejoin="miter"></path></g></g></svg>