<svg width="48" height="48" viewBox="0 0 48 48" fill="none" xmlns="http://www.w3.org/2000/svg">
<g id="icons8-treatment 1">
<path id="Vector" d="M21 19.5H27" stroke="#5A16EB" stroke-width="3" stroke-linecap="round" stroke-linejoin="round"/>
<path id="Vector_2" d="M24 16.5V22.5" stroke="#5A16EB" stroke-width="3" stroke-linecap="round" stroke-linejoin="round"/>
<path id="Vector_3" d="M17.5 28.5H30.5" stroke="#5A16EB" stroke-width="3" stroke-linecap="round" stroke-linejoin="round"/>
<path id="Vector_4" d="M17.5 34.5H30.5" stroke="#5A16EB" stroke-width="3" stroke-linecap="round" stroke-linejoin="round"/>
<path id="Vector_5" d="M9.5 16.7V11.5C9.5 9.8 10.8 8.5 12.5 8.5H17.5" stroke="#5A16EB" stroke-width="3" stroke-linecap="round" stroke-linejoin="round"/>
<path id="Vector_6" d="M38.5 34.7001V38.5C38.5 40.2 37.2 41.5 35.5 41.5H12.5C10.8 41.5 9.5 40.2 9.5 38.5V22.3" stroke="#5A16EB" stroke-width="3" stroke-linecap="round" stroke-linejoin="round"/>
<path id="Vector_7" d="M30.5 8.5H35.5C37.2 8.5 38.5 9.8 38.5 11.5V29.4" stroke="#5A16EB" stroke-width="3" stroke-linecap="round" stroke-linejoin="round"/>
<path id="Vector_8" d="M27.5 4.5C26.7 4.5 21 4.5 20.5 4.5C18.8 4.5 17.5 5.8 17.5 7.5C17.5 9.2 18.8 10.5 20.5 10.5C21 10.5 26.7 10.5 27.5 10.5C29.2 10.5 30.5 9.2 30.5 7.5C30.5 5.8 29.2 4.5 27.5 4.5Z" stroke="#5A16EB" stroke-width="3" stroke-linecap="round" stroke-linejoin="round"/>
</g>
</svg>
