<svg width="48" height="48" viewBox="0 0 48 48" fill="none" xmlns="http://www.w3.org/2000/svg">
<g id="icons8-health-calendar 1">
<g id="Group">
<g id="Group_2">
<path id="Vector" d="M7.5 22.9V15.2V12.5C7.5 9.7 9.69999 7.5 12.5 7.5H35.5C38.3 7.5 40.5 9.7 40.5 12.5V29" stroke="#5A16EB" stroke-width="3" stroke-miterlimit="10" stroke-linecap="round" stroke-linejoin="round"/>
<path id="Vector_2" d="M40.5 35.5C40.5 38.3 38.3 40.5 35.5 40.5H12.5C9.69999 40.5 7.5 38.3 7.5 35.5V28.4" stroke="#5A16EB" stroke-width="3" stroke-miterlimit="10" stroke-linecap="round" stroke-linejoin="round"/>
<path id="Vector_3" d="M12.2 15.5H34.7" stroke="#5A16EB" stroke-width="3" stroke-miterlimit="10" stroke-linecap="round" stroke-linejoin="round"/>
<path id="Vector_4" d="M14.5 5V9.5" stroke="#5A16EB" stroke-width="3" stroke-miterlimit="10" stroke-linecap="round" stroke-linejoin="round"/>
<path id="Vector_5" d="M33.5 5V9.5" stroke="#5A16EB" stroke-width="3" stroke-miterlimit="10" stroke-linecap="round" stroke-linejoin="round"/>
<path id="Vector_6" d="M16.5 26.4C17.1 31 22.7 34.4 24 34.4C25.4 34.4 31.6 30.2 31.6 25.6C31.6 23.3 29.8 21.5 27.5 21.5C26 21.5 24.7 22.3 24 23.5C23.3 22.3 22 21.5 20.5 21.5" stroke="#5A16EB" stroke-width="3" stroke-miterlimit="10" stroke-linecap="round" stroke-linejoin="round"/>
</g>
</g>
</g>
</svg>
