<svg width="48" height="48" viewBox="0 0 48 48" fill="none" xmlns="http://www.w3.org/2000/svg">
<g id="icons8-nurse 1">
<g id="Group">
<g id="Group_2">
<path id="Vector" d="M15.6 24.2001C15.6 24.2001 24 24.2001 27.9 20.7001C27.9 20.7001 34.9 21.6001 34.9 29.5001C34.4 37.9001 29.7 44.5001 23.9 44.5001C18.1 44.5001 13.4 37.9001 12.9 29.5001" stroke="#5A16EB" stroke-width="3" stroke-miterlimit="10" stroke-linecap="round" stroke-linejoin="round"/>
<path id="Vector_2" d="M7.1 24.1C6.4 26.9 6.1 30.1 6.1 33.9V38.5C6.1 40.5 7.7 42.2 9.79999 42.2H12.1" stroke="#5A16EB" stroke-width="3" stroke-miterlimit="10" stroke-linecap="round" stroke-linejoin="round"/>
<path id="Vector_3" d="M14.4 12.5C12.6 13.7 11.1 15.3 9.79999 17.4" stroke="#5A16EB" stroke-width="3" stroke-miterlimit="10" stroke-linecap="round" stroke-linejoin="round"/>
<path id="Vector_4" d="M36.5 42.2H38.3C40.3 42.2 42 40.6 42 38.5V33.9C42 21.1 37.5 15.5 33.5 13.4" stroke="#5A16EB" stroke-width="3" stroke-miterlimit="10" stroke-linecap="round" stroke-linejoin="round"/>
<path id="Vector_5" d="M19.4 33.5C20.3941 33.5 21.2 32.6941 21.2 31.7C21.2 30.7059 20.3941 29.9 19.4 29.9C18.4059 29.9 17.6 30.7059 17.6 31.7C17.6 32.6941 18.4059 33.5 19.4 33.5Z" fill="#5A16EB"/>
<path id="Vector_6" d="M28.6 33.5C29.5941 33.5 30.4 32.6941 30.4 31.7C30.4 30.7059 29.5941 29.9 28.6 29.9C27.6059 29.9 26.8 30.7059 26.8 31.7C26.8 32.6941 27.6059 33.5 28.6 33.5Z" fill="#5A16EB"/>
<path id="Vector_7" d="M29.8 15.7C26.1 14.1 21.8 14.1 18.1 15.7C17.1 16.1 16 15.7 15.5 14.8C14.5 12.8 13.4 10.7 12.4 8.60005C11.6 7.00005 12.3 5.10005 13.9 4.50005C20.3 1.90005 27.5 1.90005 33.9 4.50005C35.5 5.20005 36.2 7.10005 35.4 8.60005C34.4 10.6 33.3 12.8 32.3 14.8C31.9 15.7 30.8 16.1 29.8 15.7Z" stroke="#5A16EB" stroke-width="3" stroke-miterlimit="10" stroke-linecap="round" stroke-linejoin="round"/>
<g id="Group_3">
<path id="Vector_8" d="M24 7V10" stroke="#5A16EB" stroke-width="3" stroke-miterlimit="10" stroke-linecap="round" stroke-linejoin="round"/>
<path id="Vector_9" d="M22.3 8.5H25.8" stroke="#5A16EB" stroke-width="3" stroke-miterlimit="10" stroke-linecap="round" stroke-linejoin="round"/>
</g>
</g>
</g>
</g>
</svg>
