<svg width="48" height="48" viewBox="0 0 48 48" fill="none" xmlns="http://www.w3.org/2000/svg">
<g id="icons8-hospital-3 1">
<g id="Group">
<g id="Group_2">
<path id="Vector" d="M24 8.5V13.5" stroke="#5A16EB" stroke-width="3" stroke-miterlimit="10" stroke-linecap="round" stroke-linejoin="round"/>
<path id="Vector_2" d="M21.5 11H26.5" stroke="#5A16EB" stroke-width="3" stroke-miterlimit="10" stroke-linecap="round" stroke-linejoin="round"/>
<path id="Vector_3" d="M43.5 18.8V15.5C43.5 13.3 41.7 11.5 39.5 11.5H31.7" stroke="#5A16EB" stroke-width="3" stroke-miterlimit="10" stroke-linecap="round" stroke-linejoin="round"/>
<path id="Vector_4" d="M35 44.4999H39.5C41.7 44.4999 43.5 42.6999 43.5 40.4999V25.2999" stroke="#5A16EB" stroke-width="3" stroke-miterlimit="10" stroke-linecap="round" stroke-linejoin="round"/>
<path id="Vector_5" d="M19.5 40V36.5C19.5 35.9 19.9 35.5 20.5 35.5H27.5C28.1 35.5 28.5 35.9 28.5 36.5V44.5" stroke="#5A16EB" stroke-width="3" stroke-miterlimit="10" stroke-linecap="round" stroke-linejoin="round"/>
<path id="Vector_6" d="M12 11.5H8.49999C6.3 11.5 4.5 13.3 4.5 15.5V40.5C4.5 42.7 6.3 44.5 8.49999 44.5H19.5" stroke="#5A16EB" stroke-width="3" stroke-miterlimit="10" stroke-linecap="round" stroke-linejoin="round"/>
<path id="Vector_7" d="M27.5 18.5H20.5C18.3 18.5 16.5 16.7 16.5 14.5V7.5C16.5 5.3 18.3 3.5 20.5 3.5H27.5C29.7 3.5 31.5 5.3 31.5 7.5V14.5C31.5 16.7 29.7 18.5 27.5 18.5Z" stroke="#5A16EB" stroke-width="3" stroke-miterlimit="10" stroke-linecap="round" stroke-linejoin="round"/>
<path id="Vector_8" d="M13 26H11C10.4 26 9.99999 25.6 9.99999 25V23C9.99999 22.4 10.4 22 11 22H13C13.6 22 14 22.4 14 23V25C14 25.6 13.6 26 13 26Z" fill="#5A16EB"/>
<path id="Vector_9" d="M21 26H19C18.4 26 18 25.6 18 25V23C18 22.4 18.4 22 19 22H21C21.6 22 22 22.4 22 23V25C22 25.6 21.6 26 21 26Z" fill="#5A16EB"/>
<path id="Vector_10" d="M29 26H27C26.4 26 26 25.6 26 25V23C26 22.4 26.4 22 27 22H29C29.6 22 30 22.4 30 23V25C30 25.6 29.6 26 29 26Z" fill="#5A16EB"/>
<path id="Vector_11" d="M37 26H35C34.4 26 34 25.6 34 25V23C34 22.4 34.4 22 35 22H37C37.6 22 38 22.4 38 23V25C38 25.6 37.6 26 37 26Z" fill="#5A16EB"/>
<path id="Vector_12" d="M13 32H11C10.4 32 9.99999 31.6 9.99999 31V29C9.99999 28.4 10.4 28 11 28H13C13.6 28 14 28.4 14 29V31C14 31.6 13.6 32 13 32Z" fill="#5A16EB"/>
<path id="Vector_13" d="M21 32H19C18.4 32 18 31.6 18 31V29C18 28.4 18.4 28 19 28H21C21.6 28 22 28.4 22 29V31C22 31.6 21.6 32 21 32Z" fill="#5A16EB"/>
<path id="Vector_14" d="M29 32H27C26.4 32 26 31.6 26 31V29C26 28.4 26.4 28 27 28H29C29.6 28 30 28.4 30 29V31C30 31.6 29.6 32 29 32Z" fill="#5A16EB"/>
<path id="Vector_15" d="M37 32H35C34.4 32 34 31.6 34 31V29C34 28.4 34.4 28 35 28H37C37.6 28 38 28.4 38 29V31C38 31.6 37.6 32 37 32Z" fill="#5A16EB"/>
<path id="Vector_16" d="M13 38H11C10.4 38 9.99999 37.6 9.99999 37V35C9.99999 34.4 10.4 34 11 34H13C13.6 34 14 34.4 14 35V37C14 37.6 13.6 38 13 38Z" fill="#5A16EB"/>
<path id="Vector_17" d="M37 38H35C34.4 38 34 37.6 34 37V35C34 34.4 34.4 34 35 34H37C37.6 34 38 34.4 38 35V37C38 37.6 37.6 38 37 38Z" fill="#5A16EB"/>
<path id="Vector_18" d="M19.5 44.5H28.5" stroke="#5A16EB" stroke-width="3" stroke-miterlimit="10" stroke-linecap="round" stroke-linejoin="round"/>
</g>
</g>
</g>
</svg>
