<svg width="91" height="90" viewBox="0 0 91 90" fill="none" xmlns="http://www.w3.org/2000/svg">
    <path
        d="M69.1062 68.0812C76.4937 58.9687 78.3124 49.3125 78.3124 42.3375V24.675C78.3124 21.7875 76.1937 19.5 73.325 19.1062C62.3937 17.7562 53.375 12.2062 48.7625 8.94374C46.85 7.59374 44.15 7.59374 42.2375 8.94374C40.7937 9.95624 38.9375 11.2125 36.7062 12.4687"
        stroke="#5A16EB" stroke-width="4.375" stroke-miterlimit="10" stroke-linecap="round"
        stroke-linejoin="round" />
    <path
        d="M22.6062 18.225C21.0125 18.6187 19.3625 18.9187 17.675 19.125C14.7875 19.5 12.6875 21.8062 12.6875 24.6937V42.3562C12.6875 53.6812 17.4875 72.0937 43.1937 83.8125C44.5437 84.3937 46.2687 84.3937 47.8062 83.8125C52.0437 81.8812 55.7 79.7812 58.8875 77.55"
        stroke="#5A16EB" stroke-width="4.375" stroke-miterlimit="10" stroke-linecap="round"
        stroke-linejoin="round" />
    <path
        d="M59.9375 34.575C62.0562 37.5 63.3125 41.1 63.3125 45C63.3125 54.8437 55.3437 62.8125 45.5 62.8125C35.6562 62.8125 27.6875 54.8437 27.6875 45C27.6875 35.1562 35.6562 27.1875 45.5 27.1875C47.0187 27.1875 48.4812 27.375 49.8875 27.7312"
        stroke="#5A16EB" stroke-width="4.375" stroke-miterlimit="10" stroke-linecap="round"
        stroke-linejoin="round" />
    <path d="M45.5 37.5V52.5" stroke="#5A16EB" stroke-width="4.375" stroke-miterlimit="10"
        stroke-linecap="round" stroke-linejoin="round" />
    <path d="M53 45H38" stroke="#5A16EB" stroke-width="4.375" stroke-miterlimit="10"
        stroke-linecap="round" stroke-linejoin="round" />
</svg>
    